<?xml version="1.0" encoding="US-ASCII"?> <!-- -*-XML-*- -->
<!DOCTYPE svg PUBLIC "-//W3C//DTD SVG 1.1//EN"
  "http://www.w3.org/Graphics/SVG/1.1/DTD/svg11.dtd">
<svg xmlns="http://www.w3.org/2000/svg" viewBox="-178 -84 439 540">
 <g fill="none" stroke="rgb(0,180,0)" stroke-width="3">
  <polyline points="18,-13 11,-14 16,-13 11,-11 6,-8 1,-5 -4,-2 -10,1 -15,6 -20,10 -26,13 -31,17 -37,21 -42,26 -48,31 -53,37 -58,42 -62,48 -67,53 -71,59 -75,64 -78,69 -81,75 -84,80 -87,85 -90,91 -93,97 -95,102 -98,108 -100,113 -102,119 -104,124 -107,130 -108,135 -109,140 -111,146 -112,152 -113,157 -114,162 -114,168 -115,173 -115,178 -115,184 -115,189 -115,195 -115,200 -114,206 -113,211 -112,216 -111,222 -109,228 -108,233 -106,239 -103,244 -101,249 -97,255 -94,260 -90,265 -86,271 -82,276 -76,281 -71,285 -66,290 -60,294 -55,298 -49,302 -44,305 -39,309 -33,313 -27,316 -21,317 -16,318 -10,319 -5,320 0,321 5,322 11,322 16,323 22,324 27,325 33,326 38,326 44,326 50,327 55,326 60,326 66,324 72,324 78,323 83,322 90,321 96,319 101,317 107,315 112,313 118,311 123,308 130,305 135,302 140,300 146,296 152,292 157,288 163,283 168,277 173,273 178,267 184,261 188,255 193,249 197,244 201,239 206,232 209,227 212,221 214,215 217,210 220,204 222,199 225,193 228,188 231,182 233,176 235,170 238,165 240,159 241,154 243,149 246,142 247,137 248,131 250,126 251,120 251,115 251,110 251,103 251,98 251,92 251,87 250,81 248,75 247,69 245,63 243,58 241,53 238,48 235,42 231,37 227,32 222,26 217,21 211,16 205,11 200,8 194,4 189,1 182,-2 177,-4 171,-7 165,-10 159,-12 153,-14 148,-17 141,-19 136,-21 130,-22 125,-24 120,-25 113,-26 109,-28 102,-28 97,-28 91,-28 86,-29 81,-30 75,-30 70,-30 64,-31 58,-31 53,-31 48,-31 42,-30 36,-28 31,-26 25,-24 20,-21 15,-19" />
  <polyline points="-57,25 -58,20 -61,14 -63,9 -64,3 -65,-2 -65,-8 -65,-13 -65,-18 -64,-23 -62,-28 -58,-34 -55,-39 -49,-43 -44,-46 -38,-49 -33,-51 -27,-53 -21,-54 -16,-54 -11,-53 -5,-52 0,-49 6,-45 11,-41 14,-36" />
  <polyline points="-44,-38 -42,-43 -43,-48 -45,-54 -50,-58 -51,-53 -49,-47 -47,-42" />
  <polyline points="122,-44 123,-49 128,-54 134,-58 139,-61 144,-62 149,-64 154,-65 160,-64 166,-61 172,-58 176,-53 179,-47 182,-42 184,-36 184,-31 184,-26 182,-20 180,-15" />
  <polyline points="122,-38 113,-39 119,-38 122,-43" />
  <polyline points="160,-62 157,-57 161,-62 162,-68 164,-74 159,-68 158,-62 156,-58" />
  <polyline points="121,-61 116,-58 129,-54 123,-54 117,-53 112,-56 107,-58 101,-59 95,-58 89,-58 84,-58 79,-58 73,-59 68,-59 63,-59 58,-59 52,-59 47,-59 41,-58 36,-58 30,-56 25,-55 19,-53 14,-51" />
  <polyline points="-70,-2 -75,-3 -80,1 -85,7 -90,12 -96,18 -100,23 -104,28 -109,33 -113,38 -116,44 -119,49 -122,55 -125,60 -128,66 -131,72 -132,77 -135,83 -137,89 -138,93 -139,100 -140,105 -141,112 -142,118 -142,123 -142,129 -142,134 -142,140 -141,145 -141,151 -140,157 -140,162 -139,168 -138,172 -138,178 -138,184 -137,189 -135,194 -132,199 -130,205 -128,211 -125,216 -123,221 -120,227 -117,232 -114,238 -109,243 -106,248 -104,253 -100,258 -96,264 -91,268 -87,273 -81,276" />
  <polyline points="192,-32 198,-32 191,-32 194,-26 198,-21 202,-16 207,-11 212,-5 217,0 221,6 226,11 228,16 231,21 233,27 236,32 238,37 238,43 239,48" />
  <polyline points="108,315 103,320 102,325 102,330 104,336 106,341 108,346 111,351 115,357 120,362 125,367" />
  <polyline points="127,369 122,370 127,370 122,372 116,374 111,379 106,384 102,389 98,395 96,401 95,406 95,412 94,417 93,422" />
  <polyline points="116,311 117,316 119,321 121,326 124,332 126,337 131,343 134,348 136,353 138,359 141,364 142,369 141,374 139,379 134,382 130,387 125,392 119,399 114,404 110,410 106,415 102,420" />
  <polyline points="94,413 83,411 89,411 84,414 83,419 83,424 84,430 89,434 94,436 100,438 105,439 112,440 117,441 122,441 127,442 133,441 134,435 133,430 128,426 123,424 117,422 112,420 107,418" />
  <polyline points="80,420 78,424 78,430 79,435 84,440 89,443 94,444 100,445 105,445 111,445 116,446 121,446 126,446 132,446" />
  <polyline points="99,418 93,419 99,422 104,424 110,425 115,426 121,430" />
  <polyline points="6,323 0,325 -4,330 -10,336 -15,340 -20,345 -26,349 -31,353 -36,358 -41,363 -47,368 -52,370 -57,371 -63,372 -69,374 -75,375 -81,377 -87,378 -93,380 -100,381 -105,383 -111,384 -116,386 -121,387" />
  <polyline points="-25,315 -31,317 -36,321 -41,325 -47,329 -53,335 -58,339 -62,345 -66,350 -72,350 -78,351 -84,352 -89,355 -95,357 -100,359 -106,361 -111,364 -116,367" />
  <polyline points="-119,367 -112,368 -118,368 -121,363 -126,362 -132,364 -135,369 -137,374 -136,380 -134,386 -132,391 -130,397 -129,402 -126,407 -123,412 -117,416 -112,414 -110,409 -111,404 -113,398 -116,392 -118,387" />
  <polyline points="-135,367 -140,369 -143,374 -143,380 -142,386 -140,391 -136,397 -132,402 -128,407 -122,412 -117,413" />
  <polyline points="-122,386 -124,391 -123,397" />
  <polyline points="-120,393 -122,400 -120,405 -121,399" />
  <polyline points="73,148 62,149 56,148 57,154 62,157 67,156 70,151 67,145 62,145" />
  <line x1="58" y1="136" x2="52" y2="140" />
  <polyline points="55,134 52,139 53,134 53,127 53,121 55,116 55,111 56,105 57,100 58,94 60,89 61,83 63,78 65,73 66,68 69,63 75,58 81,55 86,53 91,53 96,55 102,59 106,64 107,69 109,74 110,80 111,85 112,90 113,95" />
  <polyline points="49,139 48,144 48,149 49,155 51,161 53,166 59,171 64,170 69,168 74,163 78,157 80,151 81,146 81,140 81,134 81,128 81,123 81,117 81,112 81,106 81,101 83,96 84,90 86,84 87,79 89,73 90,68 91,63 92,58 98,54 103,52 109,53 114,55 119,60 121,66 122,71 122,76 123,81 124,87 125,92 124,98 123,103 120,108 114,105 114,100 114,95" />
  <polyline points="96,55 91,52 96,51 102,50 95,51 89,51" />
  <polyline points="49,139 44,139 38,142 33,146 29,151 28,157 28,162 30,167 36,168 41,167 46,166 51,167 57,167" />
  <polyline points="81,141 87,139 92,138 97,138 103,137 109,138 114,138 119,138 125,139 130,142 134,147 136,153 138,158 139,163 140,168 140,174 141,179 142,185 143,191 144,196 144,201 144,207 143,212 143,217 142,222" />
  <polyline points="78,163 83,164 88,163 94,163 100,162 105,162 110,161 115,162 121,163 127,168 130,173 131,178 131,184 133,190 132,196 133,201 133,206 134,211 134,216 136,222 142,223" />
  <polyline points="-118,366 -123,369 -125,374 -124,380 -121,385" />
  <polyline points="-147,351 -153,355 -156,360 -158,366" />
  <polyline points="-161,348 -165,354 -167,359 -168,365" />
  <polyline points="71,391 66,400 64,407 63,412" />
  <polyline points="41,412 41,419 42,427 44,433 50,436" />
  <polyline points="53,402 53,410 53,416 55,425" />
  <polyline points="-49,16 -54,14 -48,10 -43,8 -38,4 -32,1 -27,-2 -21,-6 -16,-11 -10,-16 -4,-20 1,-25 7,-30" />
  <polyline points="129,-41 128,-36 123,-40 125,-35 131,-31 136,-27 142,-24 147,-21 153,-18 158,-17 164,-15 169,-14 175,-14 179,-13" />
  <line x1="-125" y1="394" x2="-120" y2="391" />
  <polyline points="-121,401 -126,402 -121,398 -116,396" />
  <polyline points="106,418 107,423 105,428" />
  <polyline points="113,425 115,430 115,425" />
  <polyline points="120,422 121,427 123,432" />
  <line x1="38" y1="-12" x2="57" y2="33" />
  <line x1="57" y1="32" x2="56" y2="-13" />
  <line x1="55" y1="-14" x2="38" y2="-8" />
  <line x1="81" y1="259" x2="83" y2="309" />
  <line x1="84" y1="308" x2="105" y2="302" />
  <line x1="108" y1="302" x2="82" y2="260" />
  <line x1="197" y1="112" x2="235" y2="86" />
  <line x1="235" y1="86" x2="239" y2="115" />
  <line x1="239" y1="115" x2="199" y2="112" />
  <line x1="-94" y1="212" x2="-49" y2="206" />
  <line x1="-50" y1="206" x2="-81" y2="239" />
  <line x1="-82" y1="238" x2="-93" y2="212" />
  <line x1="-38" y1="55" x2="-10" y2="72" />
  <line x1="-72" y1="121" x2="-38" y2="129" />
  <line x1="-39" y1="280" x2="-16" y2="251" />
  <line x1="28" y1="303" x2="34" y2="271" />
  <line x1="173" y1="249" x2="147" y2="228" />
  <line x1="214" y1="183" x2="182" y2="170" />
  <line x1="212" y1="40" x2="179" y2="72" />
  <line x1="139" y1="4" x2="124" y2="37" />
 </g>
</svg>
