<?xml version="1.0" encoding="US-ASCII"?> <!-- -*-XML-*- -->
<!DOCTYPE svg PUBLIC "-//W3C//DTD SVG 1.1//EN"
  "http://www.w3.org/Graphics/SVG/1.1/DTD/svg11.dtd">
<svg xmlns="http://www.w3.org/2000/svg" viewBox="-522 -521 1043 1007">
 <g fill="none" stroke="rgb(0,180,0)" stroke-width="3">
  <polyline points="-512,279 -439,279 -424,264 -366,208 -307,264 -293,279 -220,279 -147,279 -132,264 -132,194 -147,180 -161,194 -220,250 -278,194 -220,138 -205,123 -220,109 -278,53 -293,39 -351,-18 -351,-88 -366,-102 -380,-88 -380,-18 -439,39 -454,53 -439,67 -366,67 -307,123 -366,180 -439,180 -511,180" />
  <polyline points="-512,-74 -497,-88 -511,-102" />
  <polyline points="-512,-356 -497,-370 -497,-441 -511,-455" />
  <polyline points="-380,-511 -366,-497 -307,-441 -293,-426 -220,-426 -147,-426 -132,-441 -132,-511" />
  <polyline points="-15,-511 -15,-441 -15,-370 0,-356 14,-370 14,-441 14,-511" />
  <polyline points="131,-511 131,-441 131,-370 146,-356 160,-370 219,-426 292,-426 350,-370 365,-356 379,-370 379,-441 379,-511" />
  <polyline points="160,-511 219,-455 277,-511" />
  <line x1="496" y1="-511" x2="511" y2="-497" />
  <polyline points="511,-384 496,-370 438,-314 423,-300 438,-285 511,-285" />
  <polyline points="511,-173 496,-159 496,-88 511,-74" />
  <polyline points="511,39 438,39 379,-18 379,-88 379,-159 379,-229 365,-243 350,-229 292,-173 233,-229 233,-300 219,-314 204,-300 204,-229 146,-173 131,-159 131,-88 73,-32 0,-32 -15,-18 0,-3 58,53 73,67 87,53 146,-3 160,-18 219,-74 233,-88 292,-144 350,-88 292,-32 277,-18 219,39 204,53 219,67 292,67 365,67 438,67 496,123 438,180 365,180 292,180 219,180 146,180 131,194 146,208 204,264 204,335 146,391 131,405 146,420 204,476" />
  <polyline points="511,208 438,208 365,208 292,208 233,264 233,335 233,405 233,476" />
  <line x1="511" y1="462" x2="496" y2="476" />
  <polyline points="14,476 0,462 -59,405 -74,391 -147,391 -220,391 -293,391 -351,335 -366,321 -380,335 -380,405 -366,420 -307,476" />
  <polyline points="-161,476 -220,420 -278,476" />
  <polyline points="-424,476 -439,462 -454,476" />
  <polyline points="-439,-144 -424,-159 -439,-173 -454,-159 -439,-144" />
  <polyline points="-366,-215 -307,-159 -293,-144 -220,-144 -205,-159 -220,-173 -278,-229 -278,-300 -293,-314 -351,-370 -366,-384 -380,-370 -380,-300 -380,-229 -366,-215" />
  <polyline points="-220,-3 -147,-3 -132,-18 -74,-74 -59,-88 -59,-159 0,-215 73,-215 87,-229 87,-300 73,-314 58,-300 0,-243 -74,-243 -132,-300 -147,-314 -161,-300 -161,-229 -147,-215 -88,-159 -147,-102 -161,-88 -220,-32 -234,-18 -220,-3" />
  <polyline points="0,349 73,349 87,335 87,264 73,250 58,264 0,321 -15,335 0,349" />
  <polyline points="365,321 379,335 379,405 365,420 350,405 350,335 365,321" />
  <polyline points="-512,293 -439,293 -410,264 -366,222 -322,264 -293,293 -220,293 -147,293 -117,264 -117,194 -147,166 -176,194 -220,236 -264,194 -220,152 -190,123 -220,95 -264,53 -293,25 -337,-18 -337,-88 -366,-116 -395,-88 -395,-18 -439,25 -468,53 -439,81 -366,81 -322,123 -366,166 -439,166 -511,166" />
  <polyline points="-512,-60 -483,-88 -511,-116" />
  <polyline points="-512,-342 -483,-370 -483,-441 -511,-469" />
  <polyline points="-395,-511 -366,-483 -322,-441 -293,-412 -220,-412 -147,-412 -117,-441 -117,-511" />
  <polyline points="-30,-511 -30,-441 -30,-370 0,-342 29,-370 29,-441 29,-511" />
  <polyline points="116,-511 116,-441 116,-370 146,-342 175,-370 219,-412 292,-412 336,-370 365,-342 394,-370 394,-441 394,-511" />
  <polyline points="175,-511 219,-469 263,-511" />
  <line x1="482" y1="-511" x2="511" y2="-483" />
  <polyline points="511,-398 482,-370 438,-328 409,-300 438,-271 511,-271" />
  <polyline points="511,-187 482,-159 482,-88 511,-60" />
  <polyline points="511,25 438,25 394,-18 394,-88 394,-159 394,-229 365,-257 336,-229 292,-187 248,-229 248,-300 219,-328 189,-300 189,-229 146,-187 116,-159 116,-88 73,-46 0,-46 -30,-18 0,11 43,53 73,81 102,53 146,11 175,-18 219,-60 248,-88 292,-130 336,-88 292,-46 263,-18 219,25 189,53 219,81 292,81 365,81 438,81 482,123 438,166 365,166 292,166 219,166 146,166 116,194 146,222 189,264 189,335 146,377 116,405 146,434 189,476" />
  <polyline points="511,222 438,222 365,222 292,222 248,264 248,335 248,405 248,476" />
  <line x1="511" y1="448" x2="482" y2="476" />
  <polyline points="29,476 0,448 -44,405 -74,377 -147,377 -220,377 -293,377 -337,335 -366,307 -395,335 -395,405 -366,434 -322,476" />
  <polyline points="-176,476 -220,434 -264,476" />
  <polyline points="-410,476 -439,448 -468,476" />
  <polyline points="-439,-130 -410,-159 -439,-187 -468,-159 -439,-130" />
  <polyline points="-366,-201 -322,-159 -293,-130 -220,-130 -190,-159 -220,-187 -264,-229 -264,-300 -293,-328 -337,-370 -366,-398 -395,-370 -395,-300 -395,-229 -366,-201" />
  <polyline points="-220,11 -147,11 -117,-18 -74,-60 -44,-88 -44,-159 0,-201 73,-201 102,-229 102,-300 73,-328 43,-300 0,-257 -74,-257 -117,-300 -147,-328 -176,-300 -176,-229 -147,-201 -103,-159 -147,-116 -176,-88 -220,-46 -249,-18 -220,11" />
  <polyline points="0,363 73,363 102,335 102,264 73,236 43,264 0,307 -30,335 0,363" />
  <polyline points="365,307 394,335 394,405 365,434 336,405 336,335 365,307" />
  <polyline points="-512,307 -439,307 -410,335 -410,405 -439,434 -483,476" />
  <polyline points="-512,152 -439,152 -366,152 -337,123 -366,95 -439,95 -483,53 -439,11 -410,-18 -410,-88 -439,-116 -468,-88 -511,-46" />
  <polyline points="-512,-130 -483,-159 -439,-201 -410,-229 -410,-300 -410,-370 -366,-412 -337,-441 -366,-469 -410,-511" />
  <polyline points="-512,-328 -468,-370 -468,-441 -511,-483" />
  <polyline points="-103,-511 -103,-441 -147,-398 -220,-398 -293,-398 -322,-370 -293,-342 -249,-300 -249,-229 -220,-201 -190,-229 -190,-300 -147,-342 -103,-300 -74,-271 0,-271 29,-300 0,-328 -44,-370 -44,-441 -44,-511" />
  <polyline points="43,-511 43,-441 43,-370 73,-342 102,-370 102,-441 102,-511" />
  <polyline points="189,-511 219,-483 248,-511" />
  <polyline points="409,-511 409,-441 409,-370 438,-342 467,-370 511,-412" />
  <line x1="467" y1="-511" x2="511" y2="-469" />
  <polyline points="511,-257 438,-257 409,-229 409,-159 409,-88 409,-18 438,11 511,11" />
  <polyline points="511,-201 467,-159 467,-88 511,-46" />
  <polyline points="511,236 438,236 365,236 292,236 263,264 263,335 263,405 263,476" />
  <line x1="511" y1="434" x2="467" y2="476" />
  <polyline points="175,476 146,448 102,405 73,377 0,377 -30,405 0,434 43,476" />
  <polyline points="-190,476 -220,448 -249,476" />
  <polyline points="-337,476 -366,448 -395,476" />
  <polyline points="-366,293 -337,264 -366,236 -395,264 -366,293" />
  <polyline points="-366,-130 -337,-159 -366,-187 -395,-159 -366,-130" />
  <polyline points="-293,363 -220,363 -147,363 -74,363 -44,335 0,293 29,264 73,222 102,194 146,152 219,152 292,152 365,152 438,152 467,123 438,95 365,95 292,95 219,95 175,53 146,25 116,53 73,95 29,53 0,25 -44,-18 -74,-46 -103,-18 -147,25 -220,25 -249,53 -220,81 -176,123 -147,152 -103,194 -103,264 -147,307 -220,307 -293,307 -322,335 -293,363" />
  <polyline points="-293,11 -264,-18 -220,-60 -190,-88 -220,-116 -293,-116 -322,-88 -322,-18 -293,11" />
  <polyline points="-220,222 -190,194 -220,166 -249,194 -220,222" />
  <polyline points="-147,-130 -117,-159 -147,-187 -176,-159 -147,-130" />
  <polyline points="0,-60 73,-60 102,-88 102,-159 73,-187 0,-187 -30,-159 -30,-88 0,-60" />
  <polyline points="146,363 175,335 175,264 146,236 116,264 116,335 146,363" />
  <polyline points="146,-201 175,-229 175,-300 146,-328 116,-300 116,-229 146,-201" />
  <polyline points="219,11 248,-18 219,-46 189,-18 219,11" />
  <polyline points="219,-342 263,-300 263,-229 292,-201 321,-229 365,-271 394,-300 365,-328 321,-370 292,-398 219,-398 189,-370 219,-342" />
  <polyline points="292,-60 321,-88 292,-116 263,-88 292,-60" />
  <polyline points="365,293 409,335 409,405 365,448 321,405 321,335 365,293" />
  <polyline points="-512,321 -439,321 -424,335 -424,405 -439,420 -497,476" />
  <polyline points="-512,138 -439,138 -366,138 -351,123 -366,109 -439,109 -497,53 -439,-3 -424,-18 -424,-88 -439,-102 -454,-88 -511,-32" />
  <polyline points="-512,-144 -497,-159 -439,-215 -424,-229 -424,-300 -424,-370 -366,-426 -351,-441 -366,-455 -424,-511" />
  <polyline points="-512,-314 -454,-370 -454,-441 -511,-497" />
  <polyline points="-88,-511 -88,-441 -147,-384 -220,-384 -293,-384 -307,-370 -293,-356 -234,-300 -234,-229 -220,-215 -205,-229 -205,-300 -147,-356 -88,-300 -74,-285 0,-285 14,-300 0,-314 -59,-370 -59,-441 -59,-511" />
  <polyline points="58,-511 58,-441 58,-370 73,-356 87,-370 87,-441 87,-511" />
  <polyline points="204,-511 219,-497 233,-511" />
  <polyline points="423,-511 423,-441 423,-370 438,-356 453,-370 511,-426" />
  <line x1="453" y1="-511" x2="511" y2="-455" />
  <polyline points="511,-243 438,-243 423,-229 423,-159 423,-88 423,-18 438,-3 511,-3" />
  <polyline points="511,-215 453,-159 453,-88 511,-32" />
  <polyline points="511,250 438,250 365,250 292,250 277,264 277,335 277,405 277,476" />
  <line x1="511" y1="420" x2="453" y2="476" />
  <polyline points="160,476 146,462 87,405 73,391 0,391 -15,405 0,420 58,476" />
  <polyline points="-205,476 -220,462 -234,476" />
  <polyline points="-351,476 -366,462 -380,476" />
  <polyline points="-366,279 -351,264 -366,250 -380,264 -366,279" />
  <polyline points="-366,-144 -351,-159 -366,-173 -380,-159 -366,-144" />
  <polyline points="-293,349 -220,349 -147,349 -74,349 -59,335 0,279 14,264 73,208 87,194 146,138 219,138 292,138 365,138 438,138 453,123 438,109 365,109 292,109 219,109 160,53 146,39 131,53 73,109 14,53 0,39 -59,-18 -74,-32 -88,-18 -147,39 -220,39 -234,53 -220,67 -161,123 -147,138 -88,194 -88,264 -147,321 -220,321 -293,321 -307,335 -293,349" />
  <polyline points="-293,-3 -278,-18 -220,-74 -205,-88 -220,-102 -293,-102 -307,-88 -307,-18 -293,-3" />
  <polyline points="-220,208 -205,194 -220,180 -234,194 -220,208" />
  <polyline points="-147,-144 -132,-159 -147,-173 -161,-159 -147,-144" />
  <polyline points="0,-74 73,-74 87,-88 87,-159 73,-173 0,-173 -15,-159 -15,-88 0,-74" />
  <polyline points="146,349 160,335 160,264 146,250 131,264 131,335 146,349" />
  <polyline points="146,-215 160,-229 160,-300 146,-314 131,-300 131,-229 146,-215" />
  <polyline points="219,-3 233,-18 219,-32 204,-18 219,-3" />
  <polyline points="219,-356 277,-300 277,-229 292,-215 306,-229 365,-285 379,-300 365,-314 306,-370 292,-384 219,-384 204,-370 219,-356" />
  <polyline points="292,-74 306,-88 292,-102 277,-88 292,-74" />
  <polyline points="365,279 423,335 423,405 365,462 306,405 306,335 365,279" />
  <polyline points="-512,335 -439,335 -439,405 -511,476" />
  <polyline points="-512,123 -439,123 -366,123 -439,123 -511,53 -438,-18 -438,-88 -510,-18" />
  <polyline points="-512,-159 -439,-229 -439,-300 -439,-370 -366,-441 -439,-511" />
  <polyline points="-512,-300 -439,-370 -439,-441 -511,-511" />
  <polyline points="-74,-511 -74,-441 -147,-370 -220,-370 -293,-370 -220,-300 -220,-229 -220,-300 -147,-370 -74,-300 0,-300 -74,-370 -74,-441 -74,-511" />
  <polyline points="73,-511 73,-441 73,-370 73,-441 73,-511" />
  <line x1="219" y1="-511" x2="219" y2="-511" />
  <polyline points="438,-511 438,-441 438,-370 511,-441" />
  <line x1="438" y1="-511" x2="511" y2="-441" />
  <polyline points="511,-229 438,-229 438,-159 438,-88 438,-18 511,-18" />
  <polyline points="511,-229 438,-159 438,-88 511,-18" />
  <polyline points="511,264 438,264 365,264 292,264 292,335 292,405 292,476" />
  <line x1="511" y1="405" x2="438" y2="476" />
  <polyline points="146,476 73,405 0,405 73,476" />
  <line x1="-220" y1="476" x2="-220" y2="476" />
  <line x1="-366" y1="476" x2="-366" y2="476" />
  <line x1="-366" y1="264" x2="-366" y2="264" />
  <line x1="-366" y1="-159" x2="-366" y2="-159" />
  <polyline points="-293,335 -220,335 -147,335 -74,335 0,264 73,194 146,123 219,123 292,123 365,123 438,123 365,123 292,123 219,123 146,53 73,123 0,53 -74,-18 -147,53 -220,53 -147,123 -74,194 -74,264 -147,335 -220,335 -293,335" />
  <polyline points="-293,-18 -220,-88 -293,-88 -293,-18" />
  <line x1="-220" y1="194" x2="-220" y2="194" />
  <line x1="-147" y1="-159" x2="-147" y2="-159" />
  <polyline points="0,-88 73,-88 73,-159 0,-159 0,-88" />
  <polyline points="146,335 146,264 146,335" />
  <polyline points="146,-229 146,-300 146,-229" />
  <line x1="219" y1="-18" x2="219" y2="-18" />
  <polyline points="219,-370 292,-300 292,-229 365,-300 292,-370 219,-370" />
  <line x1="292" y1="-88" x2="292" y2="-88" />
  <polyline points="365,264 438,335 438,405 365,476 292,405 292,335 365,264" />
 </g>
</svg>
