<?xml version="1.0" encoding="US-ASCII"?> <!-- -*-XML-*- -->
<!DOCTYPE svg PUBLIC "-//W3C//DTD SVG 1.1//EN"
  "http://www.w3.org/Graphics/SVG/1.1/DTD/svg11.dtd">
<svg xmlns="http://www.w3.org/2000/svg" viewBox="-488 -410 948 820">
 <!-- SVG created from ARDS file DSK:-PICS-;SLOAD PIC -->
 <g fill="none" stroke="rgb(0,180,0)" stroke-width="3">
  <polyline points="-270,360 -270,-360 450,-360 450,360 -270,360" />
  <line x1="-270" y1="280" x2="450" y2="280" />
  <line x1="-167" y1="349" x2="-167" y2="360" />
  <line x1="-64" y1="349" x2="-64" y2="360" />
  <line x1="39" y1="349" x2="39" y2="360" />
  <line x1="141" y1="349" x2="141" y2="360" />
  <line x1="244" y1="349" x2="244" y2="360" />
  <line x1="347" y1="349" x2="347" y2="360" />
  <line x1="-167" y1="291" x2="-167" y2="269" />
  <line x1="-64" y1="291" x2="-64" y2="269" />
  <line x1="39" y1="291" x2="39" y2="269" />
  <line x1="141" y1="291" x2="141" y2="269" />
  <line x1="244" y1="291" x2="244" y2="269" />
  <line x1="347" y1="291" x2="347" y2="269" />
  <line x1="-167" y1="-360" x2="-167" y2="360" />
  <line x1="-259" y1="280" x2="-270" y2="280" />
  <line x1="-259" y1="200" x2="-270" y2="200" />
  <line x1="-259" y1="120" x2="-270" y2="120" />
  <text x="-312" y="146" font-family="monospace" font-size="12">100</text>
  <text x="-291" y="125" font-family="monospace" font-size="12">0</text>
  <line x1="-259" y1="40" x2="-270" y2="40" />
  <line x1="-259" y1="-40" x2="-270" y2="-40" />
  <text x="-310" y="-12" font-family="monospace" font-size="12">100</text>
  <text x="-287" y="-34" font-family="monospace" font-size="12">0</text>
  <line x1="-259" y1="-120" x2="-270" y2="-120" />
  <line x1="-259" y1="-200" x2="-270" y2="-200" />
  <text x="-312" y="-175" font-family="monospace" font-size="12">100</text>
  <text x="-290" y="-196" font-family="monospace" font-size="12">0</text>
  <line x1="-259" y1="-280" x2="-270" y2="-280" />
  <text x="-323" y="-335" font-family="monospace" font-size="12">1000</text>
  <line x1="15" y1="357" x2="15" y2="-394" />
  <line x1="-167" y1="-358" x2="-167" y2="-392" />
  <line x1="-156" y1="280" x2="-178" y2="280" />
  <line x1="-156" y1="200" x2="-178" y2="200" />
  <line x1="-156" y1="120" x2="-178" y2="120" />
  <line x1="-156" y1="40" x2="-178" y2="40" />
  <line x1="-156" y1="-40" x2="-178" y2="-40" />
  <line x1="-156" y1="-120" x2="-178" y2="-120" />
  <line x1="-156" y1="-200" x2="-178" y2="-200" />
  <line x1="-156" y1="-280" x2="-178" y2="-280" />
  <text x="-188" y="-268" font-family="monospace" font-size="12"> </text>
  <polyline points="-163,271 -161,273 -159,278 -157,280 -155,279 -153,279 -151,279 -149,280 -145,280 -142,278 -140,279 -138,279 -136,280 -134,276 -132,279 -130,279 -126,277 -124,279 -122,278 -120,279 -118,280 -116,278 -114,275 -112,279 -110,275 -107,278 -105,278 -103,278 -101,279 -99,278 -97,279 -95,279 -93,280 -91,278 -89,278 -87,278 -85,275 -83,277 -81,278 -79,278 -77,276 -75,278 -73,278 -70,277 -68,280 -66,278 -64,277 -58,275 -56,277 -54,274 -50,276 -48,278 -46,274 -44,276 -42,274 -40,277 -38,278 -35,275 -33,278 -31,280 -29,279 -27,280 -25,279 -23,279 -21,279 -19,279 -17,279 -15,275 -13,276 -9,276 -7,274 -3,274 -1,276 2,270 4,273 6,274 10,274 12,274 14,270 16,175 18,278 20,280 39,280 41,279 43,280 57,280 59,274 61,277 63,278 65,280 69,280 71,279 74,279 76,276 78,266 80,275 82,275 84,278 86,279 88,268 90,273 92,273 94,278 96,280 98,279 102,279 104,280 106,279 109,280 111,277 113,279 115,280 121,280 123,278 125,279 127,279 129,278 131,264 133,279 135,274 137,257 139,270 141,215 143,200 146,224 148,235 150,262 152,273 154,247 156,243 158,271 160,235 162,259 164,258 166,261 168,263 170,260 172,223 174,205 176,208 178,213 181,219 183,260 185,231 187,253 189,271 191,274 193,274 195,270 197,264 199,254 201,265 203,265 205,277 207,277 209,278 211,269 213,264 215,266 218,260 220,261 222,259 224,232 226,221 228,249 230,222 232,225 234,265 236,265 238,253 240,252 242,223 244,217 246,275 248,250 250,257 253,246 255,258 257,257 259,249 261,228 263,237 265,232 267,251 269,190 271,218 273,255 275,261 277,213 279,228 281,206 283,236 285,207 287,246 290,239 292,252 294,265 296,249 298,249 300,226 302,243 304,198 306,178 308,187 310,172 312,194 314,252 316,182 318,166 320,180 322,233 325,182 327,163 329,188 331,271 335,256 337,264 339,264 341,261 343,273 345,259 347,149 349,138 351,164 353,172 355,157 357,146 359,171 362,147 364,148 366,153 368,150 370,157 372,157 374,154 376,143 378,147 380,153 382,138 384,139 386,163 388,158 390,150 392,144 394,154 397,162 399,154 401,170 403,168 405,174 407,169 409,185 411,166 413,165 415,172 417,162 419,177 421,171 423,162 425,175" />
  <text x="425" y="187" font-family="monospace" font-size="12">(1)</text>
  <polyline points="-163,8 -161,5 -159,-4 -157,-2 -155,1 -153,-3 -151,-5 -149,-1 -147,2 -145,-7 -142,-4 -140,-3 -138,-4 -136,-6 -134,-3 -132,4 -130,-1 -128,-5 -126,-9 -124,-6 -122,-3 -120,-5 -118,-15 -116,-11 -114,-2 -112,-9 -110,-8 -107,-4 -105,-4 -103,-7 -101,-11 -99,-11 -97,-11 -95,-15 -93,-13 -91,-6 -89,-5 -87,-9 -85,-7 -83,-5 -81,-5 -79,-10 -77,-11 -75,-6 -73,-4 -70,-7 -68,-16 -66,-9 -62,-1 -60,-5 -58,6 -56,7 -54,7 -52,5 -50,1 -48,2 -46,7 -44,2 -42,2 -40,-1 -38,-10 -35,-6 -33,-4 -29,-11 -27,-12 -25,-7 -23,-3 -21,-7 -19,-4 -17,-4 -15,6 -13,3 -11,2 -9,10 -7,9 -5,-2 -3,-1 -1,5 2,11 4,1 6,0 8,2 10,3 12,1 14,1 16,79 18,-28 20,-33 22,-33 24,-31 26,-31 28,-32 30,-33 32,-31 34,-25 39,-24 41,-21 43,-21 45,-24 47,-30 49,-26 51,-28 53,-20 55,-23 57,-14 59,-2 61,-11 63,-13 65,-23 67,-12 69,-9 71,-12 74,-9 78,10 80,3 82,2 84,-5 86,-11 88,5 90,10 92,9 94,-6 96,-13 98,-1 100,5 102,4 104,3 106,8 109,7 111,7 113,1 115,1 117,-1 119,-5 121,5 123,2 125,2 127,-8 129,-18 131,2 133,-17 135,12 137,16 139,9 141,69 143,73 146,53 148,41 150,15 152,7 154,29 156,43 158,-4 160,34 162,12 164,12 166,18 168,18 170,19 172,58 174,66 176,69 178,61 181,56 183,22 185,49 187,35 189,15 191,17 193,17 195,19 197,36 199,42 201,26 203,23 205,17 207,15 209,29 211,8 213,17 215,15 218,28 220,23 222,26 224,50 226,53 228,32 230,63 232,56 234,10 236,18 238,31 240,33 242,55 244,54 246,1 248,26 250,17 253,29 255,28 257,26 259,34 261,54 263,43 265,46 267,28 269,83 271,61 273,26 275,20 277,61 279,45 281,73 283,37 285,67 287,30 290,46 292,30 294,14 296,31 298,42 300,50 302,59 304,68 306,90 308,75 310,89 312,79 314,25 316,85 318,97 320,91 322,37 325,82 327,98 329,80 331,-8 333,0 335,9 337,11 339,18 341,15 343,-7 345,4 347,113 349,117 351,93 353,89 355,102 357,108 359,88 362,111 364,109 366,103 368,107 370,105 372,105 374,105 376,112 378,114 380,107 382,116 384,116 386,101 388,103 390,106 392,111 394,109 397,102 399,108 401,90 403,96 405,94 407,93 409,84 411,104 413,103 415,94 417,104 419,99 421,101 423,102 425,89" />
  <text x="425" y="101" font-family="monospace" font-size="12">(2)</text>
  <polyline points="-163,-79 -161,-78 -159,-74 -157,-78 -155,-79 -153,-76 -151,-75 -149,-79 -147,-82 -145,-73 -142,-74 -140,-77 -138,-75 -136,-74 -134,-73 -132,-83 -128,-74 -126,-68 -124,-73 -122,-75 -120,-74 -118,-65 -116,-68 -114,-73 -112,-71 -110,-67 -107,-74 -105,-75 -103,-71 -101,-68 -99,-68 -97,-68 -95,-65 -93,-67 -91,-71 -89,-73 -87,-69 -85,-68 -83,-71 -81,-73 -79,-69 -77,-65 -75,-71 -73,-74 -70,-69 -68,-64 -66,-69 -64,-72 -62,-75 -60,-70 -58,-82 -56,-85 -54,-81 -52,-80 -50,-77 -48,-80 -46,-81 -44,-77 -42,-76 -40,-76 -38,-68 -35,-69 -33,-74 -31,-73 -29,-68 -27,-68 -23,-76 -21,-72 -19,-75 -17,-75 -15,-81 -13,-79 -11,-78 -9,-86 -7,-83 -5,-73 -3,-73 -1,-81 2,-81 4,-74 6,-74 8,-76 10,-77 12,-75 14,-70 16,-54 18,-50 20,-47 22,-47 24,-49 26,-49 28,-48 30,-47 32,-49 34,-55 39,-56 41,-59 43,-59 45,-56 47,-50 49,-54 51,-52 53,-60 55,-57 57,-66 59,-73 61,-66 63,-65 65,-57 67,-68 69,-71 71,-68 74,-71 76,-76 78,-75 80,-77 82,-77 84,-73 86,-68 88,-73 90,-83 92,-82 94,-72 96,-67 98,-78 100,-85 102,-83 104,-83 106,-87 109,-87 111,-84 113,-81 115,-81 117,-79 119,-75 121,-85 123,-80 125,-82 127,-71 129,-61 131,-66 133,-62 135,-85 137,-73 139,-79 141,-84 143,-73 146,-77 148,-76 152,-80 154,-77 156,-86 158,-67 160,-69 162,-71 164,-70 166,-78 168,-81 170,-79 172,-82 174,-71 176,-77 178,-74 181,-75 183,-82 185,-80 187,-87 189,-87 191,-91 193,-90 195,-89 197,-100 199,-95 201,-91 203,-89 205,-94 207,-92 209,-107 211,-77 213,-81 215,-81 218,-88 220,-84 222,-84 224,-82 226,-75 228,-81 230,-86 232,-81 234,-75 236,-82 238,-84 240,-85 242,-79 244,-71 246,-76 248,-76 250,-74 253,-75 255,-86 257,-83 259,-83 261,-82 265,-78 267,-79 269,-74 271,-78 273,-81 275,-81 277,-74 279,-73 281,-79 283,-74 285,-74 287,-76 290,-85 294,-79 296,-79 298,-90 300,-76 302,-102 304,-66 306,-67 308,-61 310,-60 312,-73 314,-77 316,-67 318,-63 320,-71 322,-70 325,-63 327,-61 329,-68 331,-63 333,-63 335,-65 337,-75 339,-82 341,-76 343,-66 345,-62 347,-62 349,-54 351,-57 353,-61 355,-59 357,-54 359,-59 364,-57 366,-57 368,-57 370,-62 372,-62 374,-59 376,-55 378,-60 380,-60 382,-54 384,-54 386,-65 388,-61 390,-56 392,-55 394,-62 397,-63 399,-61 401,-60 403,-64 405,-68 407,-62 409,-68 411,-70 413,-68 415,-67 417,-66 419,-76 421,-72 423,-64 425,-64" />
  <text x="425" y="-52" font-family="monospace" font-size="12">(3)</text>
  <polyline points="-163,-220 -161,-247 -159,-228 -157,-203 -155,-218 -153,-215 -151,-217 -149,-221 -147,-204 -145,-205 -142,-200 -140,-207 -138,-211 -136,-208 -134,-219 -132,-215 -130,-222 -128,-219 -126,-217 -124,-218 -122,-217 -120,-231 -118,-226 -116,-219 -114,-218 -112,-242 -110,-227 -107,-232 -105,-230 -103,-224 -101,-214 -99,-214 -97,-218 -95,-219 -93,-211 -91,-210 -89,-217 -87,-219 -85,-213 -83,-233 -81,-246 -79,-237 -77,-219 -75,-218 -73,-220 -70,-220 -68,-213 -66,-217 -64,-220 -62,-228 -60,-219 -58,-214 -56,-223 -54,-218 -52,-232 -50,-223 -48,-224 -46,-227 -44,-222 -42,-223 -40,-233 -38,-214 -35,-216 -33,-224 -31,-213 -29,-220 -27,-219 -25,-219 -23,-214 -21,-208 -19,-208 -17,-220 -15,-226 -13,-232 -11,-234 -9,-242 -7,-237 -5,-238 -3,-253 -1,-230 2,-245 4,-230 6,-223 10,-241 12,-211 14,-243 16,-229 18,-200 41,-200 43,-200 45,-200 47,-200 49,-201 51,-201 53,-201 55,-210 57,-217 59,-230 61,-216 63,-205 65,-205 67,-208 69,-208 71,-207 74,-213 78,-223 80,-224 84,-232 86,-219 88,-217 90,-246 92,-224 94,-236 96,-205 98,-210 100,-251 102,-243 104,-246 106,-239 109,-238 111,-251 113,-255 115,-234 117,-256 119,-221 121,-225 123,-242 125,-261 127,-236 129,-235 131,-205 133,-200 135,-202 137,-200 139,-246 141,-200 143,-200 146,-221 148,-200 150,-203 152,-204 154,-243 156,-200 158,-200 160,-208 162,-220 164,-201 166,-200 168,-200 170,-223 172,-200 174,-203 176,-210 178,-204 181,-236 183,-235 185,-252 187,-219 189,-267 191,-220 193,-243 195,-314 197,-315 199,-305 201,-310 203,-295 205,-210 207,-233 209,-261 211,-267 213,-200 215,-207 218,-213 220,-262 222,-240 224,-224 226,-206 228,-211 230,-227 232,-200 234,-206 236,-205 238,-202 240,-200 242,-288 244,-200 246,-268 248,-207 250,-255 253,-201 255,-236 257,-313 259,-236 261,-200 263,-219 265,-200 267,-238 269,-200 271,-200 273,-217 275,-223 277,-212 279,-200 283,-200 285,-208 287,-242 290,-200 292,-203 294,-245 296,-213 298,-200 312,-200 314,-205 316,-200 318,-200 320,-217 322,-200 325,-203 327,-200 329,-200 331,-205 333,-219 335,-207 337,-208 339,-256 341,-203 343,-200 345,-204 347,-200 353,-200 355,-201 357,-200 409,-200 411,-201 413,-200 421,-200 423,-201 425,-200" />
  <text x="425" y="-188" font-family="monospace" font-size="12">(4)</text>
  <line x1="-166" y1="-198" x2="448" y2="-198" />
  <line x1="-166" y1="-37" x2="448" y2="-37" />
  <line x1="-167" y1="122" x2="448" y2="122" />
  <text x="-126" y="-366" font-family="monospace" font-size="12">JAN 8, 76                JAN 9, 1976</text>
  <text x="-467" y="253" font-family="monospace" font-size="12">Null Time</text>
  <text x="-470" y="88" font-family="monospace" font-size="12">User Time</text>
  <text x="-477" y="-83" font-family="monospace" font-size="12">Overhead Time</text>
  <text x="-478" y="-244" font-family="monospace" font-size="12">Active Swapped</text>
  <text x="-598" y="-230" font-family="monospace" font-size="12">Out Pages</text>
 </g>
</svg>
